<svg width="64" height="64" viewBox="0 0 64 64" fill="none" xmlns="http://www.w3.org/2000/svg">
<path d="M15.6 59C15.6 59 22.9 55.2 30.5 56.7C37.6 58.1 37.8 53.7 41.6 53.7C45.4 53.7 44.8 50.3 47.7 50.5C47.7 50.5 49 50.6 49 51.9C49 51.9 46.6 52 45.6 53.9C44.6 55.8 39 55.6 36.8 57.8C34.1 60.5 26.5 58.7 23.3 59C20.8 59.3 17.8 62 13.5 62L15.6 59" fill="#3E4347"/>
<path d="M27.2998 53.6C27.2998 53.6 31.8998 53.4 34.5998 55.4C37.3998 57.4 39.3998 59.9 42.8998 58.7C46.3998 57.5 49.6998 56.6 53.4998 57.8C53.4998 57.8 53.9998 57.1 53.8998 56.3C53.8998 56.3 51.4998 54.9 48.6998 55.5C45.8998 56.1 43.0998 57.7 41.2998 57.1C39.4998 56.5 35.6998 52.4 29.5998 52.4L27.2998 53.6" fill="#3E4347"/>
<path d="M55.8002 57.7C55.9002 57.5 55.9002 57.3 55.8002 57.3L52.5002 56.1L52.2002 56.8L55.5002 58C55.5002 58 55.7002 57.9 55.8002 57.7" fill="#3E4347"/>
<path d="M14.3001 37.6C14.3001 37.6 8.90008 19.3 27.4001 13.3C43.8001 8.09999 38.4001 23.4 14.3001 37.6" fill="#C94747"/>
<path d="M27.3998 10.6C18.7998 32.8 12.8998 32.2 16.8998 40L18.3998 59.8C18.3998 59.8 21.0998 58.2 27.4998 54.5C32.2998 51.7 41.7998 51 48.1998 47.2C59.4998 40.6 65.9998 30.5 59.4998 19.1C52.9998 7.80003 34.5998 -8.09997 27.3998 10.6Z" fill="#ED4C5C"/>
<path d="M24.4001 42.8C21.2001 37.2 16.2001 34.1 13.2001 35.8L4.1001 41.1L15.6001 61.5L24.7001 56.2C27.7001 54.4 27.6001 48.4 24.4001 42.8Z" fill="#C94747"/>
<path d="M15.3999 48.1C18.5999 53.7 18.6999 59.7 15.6999 61.5C12.6999 63.3 7.69988 60.1 4.49988 54.5C1.29988 48.9 1.19988 42.9 4.19988 41.1C7.19988 39.4 12.1999 42.5 15.3999 48.1" fill="#3E4347"/>
<path d="M13.5998 49.1C15.8998 53.2 16.0998 57.5 14.0998 58.7C12.0998 59.9 8.49984 57.6 6.19984 53.5C3.89984 49.4 3.69984 45.1 5.69984 43.9C7.79984 42.7 11.2998 45.1 13.5998 49.1Z" fill="#ED4C5C"/>
<path d="M13.6002 49.1C11.7002 45.7 8.90018 43.5 6.80018 43.6C6.40018 45.5 7.00018 48.4 8.60018 51.2C10.5002 54.6 13.3002 56.8 15.4002 56.7C15.8002 54.8 15.2002 51.9 13.6002 49.1" fill="#C94747"/>
<path d="M38.6999 5.99999C41.6999 4.19999 51.2999 11.4 55.6999 19.1C60.0999 26.8 53.1999 28.3 48.7999 20.6C44.4999 12.8 33.7999 8.79999 38.6999 5.99999" fill="#FF717F"/>
<path d="M26.1998 13.8C26.1998 13.8 24.1998 23.2 17.2998 30.9C17.2998 30.9 21.6998 23.9 23.2998 15L26.1998 13.8" fill="#3E4347"/>
<path d="M30.0001 9.90002C33.4001 8.90002 30.1001 6.10002 32.0001 3.90002C30.2001 5.30002 27.9001 7.30002 27.0001 10.6C22.4001 28.1 15.7001 29.8 15.6001 35.4C16.8001 34.6 19.4001 32.1 22.4001 32.9C26.7001 34.1 17.5001 28.4 22.6001 29.1C27.8001 29.7 20.5001 25.4 25.2001 25.1C29.9001 24.8 21.2001 20.1 27.3001 20.2C33.4001 20.3 23.8001 16.1 30.8001 15.7C37.8001 15.1 25.8001 11.1 30.0001 9.90002" fill="#C94747"/>
<path d="M9 39.9C11.7 41.1 14.5 43.8 16.6 47.4C18.7 51.1 19.5 54.8 19.2 57.8L24.1 54.9C26.1 53.7 26.3 48.7 23.3 43.4C20.8 39 17.3 36.6 15.2 36.6C14.7 36.6 14.4 36.7 14 36.9L9 39.9" fill="white"/>
<path d="M51.0002 50.7C51.0002 50.5 50.9002 50.3 50.8002 50.3L47.2002 51L47.3002 51.8L50.8002 51.2C50.9002 51.1 51.0002 50.9 51.0002 50.7Z" fill="#3E4347"/>
</svg>
