<svg width="64" height="64" viewBox="0 0 64 64" fill="none" xmlns="http://www.w3.org/2000/svg">
<path d="M48.4 59C48.4 59 41.1 55.2 33.5 56.7C26.4 58.1 26.2 53.7 22.4 53.7C18.6 53.7 19.2 50.3 16.3 50.5C16.3 50.5 15 50.6 15 51.9C15 51.9 17.4 52 18.4 53.9C19.4 55.8 25 55.6 27.2 57.8C29.9 60.5 37.5 58.7 40.7 59C43.2 59.3 46.2 62 50.5 62L48.4 59" fill="#3E4347"/>
<path d="M36.7002 53.6C36.7002 53.6 32.1002 53.4 29.4002 55.4C26.6002 57.4 24.6002 59.9 21.1002 58.7C17.6002 57.5 14.3002 56.6 10.5002 57.8C10.5002 57.8 10.0002 57.1 10.1002 56.3C10.1002 56.3 12.5002 54.9 15.3002 55.5C18.1002 56.1 20.9002 57.7 22.7002 57.1C24.5002 56.5 28.3002 52.4 34.4002 52.4L36.7002 53.6" fill="#3E4347"/>
<path d="M8.19981 57.7C8.09981 57.5 8.09981 57.3 8.19981 57.3L11.4998 56.1L11.7998 56.8L8.49981 58C8.49981 58 8.29981 57.9 8.19981 57.7" fill="#3E4347"/>
<path d="M49.6999 37.6C49.6999 37.6 55.0999 19.3 36.5999 13.3C20.1999 8.09999 25.5999 23.4 49.6999 37.6" fill="#C94747"/>
<path d="M36.6002 10.6C45.2002 32.8 51.1002 32.2 47.1002 40L45.6002 59.8C45.6002 59.8 42.9002 58.2 36.5002 54.5C31.7002 51.7 22.2002 51 15.8002 47.2C4.5002 40.6 -1.9998 30.5 4.5002 19.1C11.0002 7.80003 29.4002 -8.09997 36.6002 10.6Z" fill="#ED4C5C"/>
<path d="M39.5999 42.8C42.7999 37.2 47.7999 34.1 50.7999 35.8L59.8999 41.1L48.3999 61.5L39.2999 56.2C36.2999 54.4 36.3999 48.4 39.5999 42.8Z" fill="#C94747"/>
<path d="M48.6001 48.1C45.4001 53.7 45.3001 59.7 48.3001 61.5C51.3001 63.3 56.3001 60.1 59.5001 54.5C62.7001 48.9 62.8001 42.9 59.8001 41.1C56.8001 39.4 51.8001 42.5 48.6001 48.1" fill="#3E4347"/>
<path d="M50.4002 49.1C48.1002 53.2 47.9002 57.5 49.9002 58.7C51.9002 59.9 55.5002 57.6 57.8002 53.5C60.1002 49.4 60.3002 45.1 58.3002 43.9C56.2002 42.7 52.7002 45.1 50.4002 49.1Z" fill="#ED4C5C"/>
<path d="M50.3998 49.1C52.2998 45.7 55.0998 43.5 57.1998 43.6C57.5998 45.5 56.9998 48.4 55.3998 51.2C53.4998 54.6 50.6998 56.8 48.5998 56.7C48.1998 54.8 48.7998 51.9 50.3998 49.1" fill="#C94747"/>
<path d="M25.3001 5.99999C22.3001 4.19999 12.7001 11.4 8.30012 19.1C3.90012 26.8 10.8001 28.3 15.2001 20.6C19.5001 12.8 30.2001 8.79999 25.3001 5.99999" fill="#FF717F"/>
<path d="M37.8002 13.8C37.8002 13.8 39.8002 23.2 46.7002 30.9C46.7002 30.9 42.3002 23.9 40.7002 15L37.8002 13.8" fill="#3E4347"/>
<path d="M33.9999 9.90002C30.5999 8.90002 33.8999 6.10002 31.9999 3.90002C33.7999 5.30002 36.0999 7.30002 36.9999 10.6C41.5999 28.1 48.2999 29.8 48.3999 35.4C47.1999 34.6 44.5999 32.1 41.5999 32.9C37.2999 34.1 46.4999 28.4 41.3999 29.1C36.1999 29.7 43.4999 25.4 38.7999 25.1C34.0999 24.8 42.7999 20.1 36.6999 20.2C30.5999 20.3 40.1999 16.1 33.1999 15.7C26.1999 15.1 38.1999 11.1 33.9999 9.90002" fill="#C94747"/>
<path d="M55 39.9C52.3 41.1 49.5 43.8 47.4 47.4C45.3 51.1 44.5 54.8 44.8 57.8L39.9 54.9C37.9 53.7 37.7 48.7 40.7 43.4C43.2 39 46.7 36.6 48.8 36.6C49.3 36.6 49.6 36.7 50 36.9L55 39.9" fill="white"/>
<path d="M12.9998 50.7C12.9998 50.5 13.0998 50.3 13.1998 50.3L16.7998 51L16.6998 51.8L13.1998 51.2C13.0998 51.1 12.9998 50.9 12.9998 50.7Z" fill="#3E4347"/>
</svg>
