<svg width="24" height="24" viewBox="0 0 24 24" fill="none" xmlns="http://www.w3.org/2000/svg">
<path d="M16.7346 9.07851C16.8394 8.98081 16.9239 8.86342 16.9834 8.73305C17.0428 8.60268 17.076 8.46189 17.081 8.3187C17.086 8.17551 17.0628 8.03274 17.0126 7.89853C16.9624 7.76432 16.8863 7.64131 16.7886 7.53651C16.6909 7.43172 16.5735 7.34719 16.4432 7.28777C16.3128 7.22834 16.172 7.19517 16.0288 7.19015C15.8856 7.18514 15.7428 7.20838 15.6086 7.25854C15.4744 7.3087 15.3514 7.38481 15.2466 7.48251L12.0546 10.4585L9.07862 7.26542C8.87949 7.06147 8.60845 6.94356 8.32349 6.93691C8.03853 6.93027 7.76228 7.03542 7.55386 7.22986C7.34545 7.42431 7.22141 7.69261 7.2083 7.97735C7.19519 8.26208 7.29405 8.54065 7.48371 8.75342L10.4597 11.9454L7.26662 14.9214C7.15813 15.0181 7.07005 15.1356 7.00757 15.2668C6.94508 15.398 6.90945 15.5404 6.90277 15.6856C6.89608 15.8308 6.91848 15.9758 6.96864 16.1123C7.0188 16.2487 7.09571 16.3737 7.19486 16.48C7.29401 16.5862 7.4134 16.6716 7.54601 16.7311C7.67862 16.7906 7.82178 16.823 7.96709 16.8264C8.11239 16.8298 8.25691 16.8041 8.39215 16.7508C8.52739 16.6976 8.65063 16.6179 8.75462 16.5163L11.9466 13.5414L14.9226 16.7334C15.0187 16.8439 15.1361 16.9339 15.2677 16.9981C15.3993 17.0623 15.5425 17.0993 15.6887 17.107C15.835 17.1146 15.9813 17.0928 16.1189 17.0427C16.2565 16.9926 16.3826 16.9154 16.4897 16.8155C16.5968 16.7156 16.6827 16.5952 16.7423 16.4615C16.8019 16.3277 16.834 16.1833 16.8365 16.0369C16.8391 15.8905 16.8122 15.7451 16.7574 15.6093C16.7026 15.4735 16.621 15.3501 16.5175 15.2465L13.5426 12.0545L16.7346 9.07851V9.07851Z" fill="#757575"/>
<path fill-rule="evenodd" clip-rule="evenodd" d="M0 12C0 5.37273 5.37273 0 12 0C18.6273 0 24 5.37273 24 12C24 18.6273 18.6273 24 12 24C5.37273 24 0 18.6273 0 12ZM12 21.8182C10.7107 21.8182 9.43394 21.5642 8.24274 21.0708C7.05155 20.5774 5.9692 19.8542 5.0575 18.9425C4.14579 18.0308 3.42259 16.9485 2.92918 15.7573C2.43577 14.5661 2.18182 13.2893 2.18182 12C2.18182 10.7107 2.43577 9.43394 2.92918 8.24274C3.42259 7.05155 4.14579 5.9692 5.0575 5.0575C5.9692 4.14579 7.05155 3.42259 8.24274 2.92918C9.43394 2.43577 10.7107 2.18182 12 2.18182C14.6039 2.18182 17.1012 3.21623 18.9425 5.0575C20.7838 6.89876 21.8182 9.39606 21.8182 12C21.8182 14.6039 20.7838 17.1012 18.9425 18.9425C17.1012 20.7838 14.6039 21.8182 12 21.8182Z" fill="#757575"/>
</svg>
