<svg width="177" height="64" viewBox="0 0 177 64" fill="none" xmlns="http://www.w3.org/2000/svg">
<path d="M32.9146 29.6106C32.3172 26.3951 28.1135 24.6251 23.9393 26.8966L25.016 30.5694L26.7122 36.0047L27.4792 38.4754C30.5989 36.4694 33.748 34.0577 32.9146 29.6032V29.6106ZM28.7699 34.5519C28.2947 32.9856 27.8104 31.422 27.317 29.8614L26.8819 28.3643C27.6986 28.1881 28.55 28.2732 29.3156 28.6076C29.7065 28.7994 30.3924 29.2271 30.5399 30.0531C30.8865 31.8969 30.267 33.217 28.7699 34.5371V34.5519ZM95.9414 24.5071C95.365 23.976 94.6854 23.5693 93.9449 23.3124C93.2045 23.0554 92.419 22.9537 91.6376 23.0135C90.8561 23.0734 90.0953 23.2935 89.4026 23.6602C88.7099 24.0269 88.1002 24.5324 87.6113 25.1451C87.1225 25.7577 86.7651 26.4645 86.5614 27.2213C86.3577 27.9781 86.312 28.7688 86.4272 29.5441C86.5424 30.3194 86.816 31.0626 87.231 31.7275C87.646 32.3924 88.1934 32.9647 88.8392 33.4088L96.347 24.9054C96.2167 24.7677 96.0814 24.6349 95.9414 24.5071V24.5071ZM88.854 30.4956C88.4908 29.8331 88.3399 29.075 88.4217 28.324C88.5034 27.5729 88.8139 26.865 89.3112 26.2962C89.8084 25.7273 90.4684 25.325 91.2018 25.1435C91.9352 24.962 92.7066 25.0102 93.4118 25.2815L88.854 30.4956ZM144.543 32.155C144.611 32.4073 144.643 32.668 144.638 32.9294C144.565 34.515 143.068 35.7466 141.29 35.6581C139.513 35.5991 138.119 34.2495 138.193 32.6712C138.244 31.1741 139.572 30.0015 141.209 29.9278C140.889 29.8557 140.563 29.8137 140.236 29.8024C137.249 29.677 134.815 31.7936 134.719 34.4191C134.594 37.2216 136.85 39.5226 139.778 39.648C142.773 39.7586 145.199 37.642 145.31 34.8469C145.341 33.8926 145.076 32.952 144.55 32.155H144.543ZM54.1694 35.3705C54.1694 36.9635 52.7165 38.2468 50.9391 38.2468C49.1544 38.2468 47.7089 36.9709 47.7089 35.3705C47.7089 33.8808 48.9847 32.6565 50.6146 32.509C50.2934 32.4503 49.9676 32.4207 49.6411 32.4205C46.6616 32.4205 44.309 34.633 44.309 37.2585C44.309 40.0757 46.669 42.2735 49.5895 42.2735C52.5764 42.2735 54.9216 40.0757 54.9216 37.2585C54.918 36.3074 54.6105 35.3823 54.044 34.6183C54.1177 34.8395 54.1694 35.0976 54.1694 35.3705V35.3705ZM163.083 19.2561L161.756 24.7063L160.532 18.6588L144.174 15.0671L144.292 24.1605L146.755 24.7136L146.578 26.3583L146.504 26.3066C143.451 24.6989 139.668 24.5366 136.106 25.8789C134.903 26.3214 133.79 26.9335 132.787 27.6636L130.316 12.0876H119.438L119.143 13.8871H107.69L106.384 21.889L105.426 20.7164C104.063 19.0467 102.348 17.6985 100.404 16.7679C98.4596 15.8373 96.3341 15.3472 94.1788 15.3326L103.899 10.1037L97.1288 0L84.8641 14.1084L86.9808 16.6896C85.1439 17.4305 83.4589 18.503 82.01 19.8535L71.508 10.5315L67.8426 17.5599L67.9827 10.8044L51.566 16.0554L51.9864 24.8759L54.7815 24.1531L55.1945 28.615C52.0011 27.1916 48.1588 27.2137 44.604 28.7182C43.5648 29.1728 42.5781 29.7391 41.6614 30.4071C42.3118 27.8124 42.1128 25.0775 41.0935 22.6044C39.8642 19.793 37.7478 17.4616 35.0681 15.9669C33.1518 14.7148 30.9652 13.9362 28.6888 13.6954C23.01 12.6997 16.1808 13.7175 9.4695 16.5864C7.09392 17.5831 4.80479 18.7746 2.6255 20.1485L0 21.8152L1.58563 24.4924L6.50475 32.804C6.50475 32.804 8.00925 35.3558 8.01663 35.3484L10.679 34.043L11.0478 33.8734L23.2755 61.1609L24.4555 63.779L27.1842 62.9087L33.7922 60.7848L36.698 59.8629L35.931 56.9129L32.4205 43.424C33.4309 42.6791 34.3675 41.8826 35.2451 41.0566C35.046 42.6718 35.1493 44.3016 35.5918 45.8651C36.5063 49.1323 38.6598 51.7135 41.6245 53.1369C44.8326 54.6856 48.7414 54.6856 52.3625 53.1516C54.1841 52.3846 55.8066 51.2563 57.1636 49.914L57.6651 55.283L69.2439 53.5794L69.2291 43.2028L93.4339 55.1503V43.5715C96.9372 43.223 100.325 42.1265 103.368 40.356L102.35 46.5731L115.404 48.6308L116.119 43.9329L119.519 50.2311L121.606 46.2118L122.373 52.8124L137.16 55.4084L136.379 50.4376C139.019 50.72 141.683 50.2118 144.034 48.9774L143.444 54.2726L153.297 55.6665L153.37 59.7006L163.622 62.9309L177 22.6339L163.083 19.2561ZM105.271 25.2299L105.949 24.5145L105.123 29.6032L102.992 27.671L105.271 25.2299ZM96.5904 4.484L100.182 9.35887L89.9308 14.4402L89.2154 13.3635L96.5904 4.484ZM28.7256 42.0301L32.8187 57.7241L26.196 59.8408L12.6186 29.5148C11.8811 29.9056 10.5241 30.5473 9.263 31.1594L4.35125 22.8551C6.313 21.6087 8.45175 20.5025 10.7306 19.5364C17.1321 16.815 23.246 15.9964 28.1356 16.8666C29.854 17.0658 31.683 17.5673 33.2981 18.6366C35.4959 19.8756 37.17 21.6309 38.1435 23.8802C40.5035 29.3377 36.5579 37.2069 28.733 42.0301H28.7256ZM59.1549 39.2424C59.0811 41.5876 58.2182 43.9181 56.7875 45.902C55.3863 47.8641 53.4765 49.4067 51.2636 50.3639C45.5185 52.7976 39.7807 50.3639 38.2541 44.9064C36.757 39.6406 40.2159 33.3645 45.7766 30.9676C49.3387 29.4779 52.9009 29.8245 55.4526 31.5576C57.0235 32.6344 58.233 34.2421 58.7935 36.2555C59.0676 37.229 59.1895 38.239 59.1549 39.2498V39.2424ZM90.3954 50.3344L66.3971 38.3205L66.4414 50.9096L60.2243 51.7578L59.7891 46.5731C61.7066 43.2839 62.4072 39.4046 61.4116 35.8499C60.8849 33.9485 59.8675 32.2191 58.4616 30.8349L57.5693 20.2665L54.7889 20.9893L54.6635 18.3195L64.6345 15.34L65.2466 25.6355L72.5995 15.3105L79.7827 22.1471L69.738 32.7376L79.178 36.4767C80.2253 38.468 81.833 40.1642 83.8538 41.418C85.8008 42.6201 88.0428 43.3355 90.4101 43.5641V50.3344H90.3954ZM77.9316 32.9294L74.5834 31.6461L77.703 28.6224C77.5629 30.0089 77.6292 31.4617 77.9242 32.9294H77.9316ZM104.054 36.0785C101.753 37.9886 99.1126 39.2276 95.6538 40.061C94.9209 40.2376 94.1767 40.3633 93.4265 40.4371C87.9174 40.9755 83.2932 38.4459 81.538 34.3454C81.3212 33.8484 81.1508 33.3324 81.0291 32.804C80.2179 29.3525 80.9111 26.2624 82.6147 23.8434C83.1135 23.1348 83.6953 22.4886 84.3479 21.9185C86.0624 20.4251 88.1196 19.3787 90.3364 18.8726C95.5874 17.6115 100.212 19.2119 103.044 22.6855L93.0504 33.335C93.9062 33.406 94.7679 33.3236 95.5947 33.0916C97.9769 32.509 99.3118 31.2479 100.484 29.8761L104.482 33.4604L105.691 34.5666C105.171 35.0976 104.625 35.6022 104.054 36.0785V36.0785ZM125.272 50.2901L123.103 35.8794L120.021 43.8296L115.411 33.8881H115.36L113.546 45.3931L105.868 44.0656L106.945 37.6494C107.235 37.3747 107.521 37.0944 107.8 36.8086L110.293 34.2421L107.867 32.0739L110.448 16.7855H118.192L120.124 27.376L122.292 15.1114H127.838L130.139 30.0531C127.219 33.3793 125.788 37.8706 126.776 41.9638C127.158 43.651 127.935 45.2232 129.044 46.5505C130.154 47.8778 131.563 48.922 133.156 49.5969L133.451 51.5365L125.272 50.2901ZM144.41 45.5923C143.551 46.2029 142.617 46.6988 141.63 47.0672C139.821 47.7917 137.844 47.9886 135.929 47.6351C134.74 47.4084 133.614 46.9307 132.625 46.2339C131.019 45.0589 129.893 43.3433 129.453 41.4033C128.863 38.9253 129.402 36.2703 130.737 33.9398C131.408 32.804 132.263 31.742 133.274 30.8201C134.395 29.8097 135.707 28.9764 137.16 28.4232C140.545 27.1547 143.886 27.5972 146.231 29.2787C147.801 30.4059 148.907 32.065 149.344 33.9471C150.067 36.9414 149.211 40.1274 147.323 42.7012C146.512 43.8141 145.529 44.7901 144.41 45.5923V45.5923ZM161.689 59.1696L156.011 57.4808L155.524 36.5505L152.663 52.7017L146.467 51.7061L146.925 47.0599C150.959 43.6379 153.105 38.2468 151.932 33.3719C151.443 31.2621 150.327 29.3495 148.732 27.8849L149.255 22.4052L146.917 21.7784L147.065 18.8579L157.744 20.9966L161.335 38.0181L165.016 22.7593L173.128 24.5587L161.689 59.1696Z" fill="#545454"/>
</svg>
