<svg width="38" height="38" viewBox="0 0 38 38" fill="none" xmlns="http://www.w3.org/2000/svg">
<path d="M10.8114 10.8116C13.2843 8.33859 13.2843 4.32775 10.8114 1.85475C8.33842 -0.61825 4.32767 -0.61825 1.85471 1.85475C-0.618238 4.32775 -0.618238 8.33859 1.85471 10.8116C4.32866 13.2856 8.33842 13.2856 10.8114 10.8116ZM36.1445 27.1884C33.6716 24.7154 29.6608 24.7154 27.1879 27.1884C24.7149 29.6614 24.7149 33.6723 27.1879 36.1453C29.6608 38.6183 33.6716 38.6183 36.1445 36.1453C38.6185 33.6723 38.6185 29.6624 36.1445 27.1884ZM35.9526 4.28619L33.7141 2.04772C32.4772 0.810727 30.4723 0.810727 29.2363 2.04772L2.04768 29.2369C0.810711 30.4739 0.810711 32.4788 2.04768 33.7148L4.2861 35.9533C5.52308 37.1903 7.52796 37.1903 8.76394 35.9533L35.9526 8.76411C37.1895 7.52811 37.1895 5.52318 35.9526 4.28619Z" fill="white"/>
</svg>
